<svg id="eQKM8GxHLrw1" xmlns="http://www.w3.org/2000/svg" xmlns:xlink="http://www.w3.org/1999/xlink" viewBox="0 0 430 435" shape-rendering="geometricPrecision" text-rendering="geometricPrecision"><style><![CDATA[#eQKM8GxHLrw2_ts {animation: eQKM8GxHLrw2_ts__ts 5000ms linear infinite normal forwards}@keyframes eQKM8GxHLrw2_ts__ts { 0% {transform: translate(62px,81.5px) scale(1,1)} 20% {transform: translate(62px,81.5px) scale(1,-0.002145)} 40% {transform: translate(62px,81.5px) scale(1,-0.843784)} 100% {transform: translate(62px,81.5px) scale(1,-0.843784)}} #eQKM8GxHLrw3_ts {animation: eQKM8GxHLrw3_ts__ts 5000ms linear infinite normal forwards}@keyframes eQKM8GxHLrw3_ts__ts { 0% {transform: translate(368px,81.5px) scale(1,1)} 20% {transform: translate(368px,81.5px) scale(1,-0.002145)} 40% {transform: translate(368px,81.5px) scale(1,-0.843784)} 100% {transform: translate(368px,81.5px) scale(1,-0.843784)}}]]></style><g id="eQKM8GxHLrw2_ts" transform="translate(62,81.5) scale(1,1)"><path d="M123,60c0,33.136783-27.3106,60-61,60s-61-26.863217-61-60C1,26.862881,28.3106,0,62,0s61,26.862881,61,60Z" transform="translate(-62,-71.5)"/></g><g id="eQKM8GxHLrw3_ts" transform="translate(368,81.5) scale(1,1)"><path d="M429,60c0,33.136783-27.311,60-61,60s-61-26.863217-61-60c0-33.137119,27.311-60,61-60s61,26.862881,61,60Z" transform="translate(-368,-71.5)"/></g><path d="M1,324c71,83.833,256,200.2,428-5" fill="none" stroke="#000"/></svg>